<svg data-name="Layer 1" xmlns="http://www.w3.org/2000/svg" xmlns:xlink="http://www.w3.org/1999/xlink" width="1024.7" height="720.22"><defs><linearGradient id="a" x1="720.55" y1="535.76" x2="720.55" y2="325.76" gradientUnits="userSpaceOnUse"><stop offset="0" stop-color="gray" stop-opacity=".25"/><stop offset=".54" stop-color="gray" stop-opacity=".12"/><stop offset="1" stop-color="gray" stop-opacity=".1"/></linearGradient><linearGradient id="b" x1="798.2" y1="583.15" x2="798.2" y2="458.15" xlink:href="#a"/><linearGradient id="c" x1="238.36" y1="428.3" x2="238.36" y2="119.58" gradientTransform="translate(-12.63 38.77)" xlink:href="#a"/><linearGradient id="d" x1="459.08" y1="428.3" x2="459.08" y2="119.58" gradientTransform="translate(-18.07 -9.96)" xlink:href="#a"/><linearGradient id="e" x1="518.08" y1="513.3" x2="518.08" y2="204.58" gradientTransform="translate(-.76 -25.08)" xlink:href="#a"/><linearGradient id="f" x1="232.72" y1="413.94" x2="250.72" y2="413.94" gradientTransform="translate(18.19 34.57)" xlink:href="#a"/><linearGradient id="g" x1="915.18" y1="385.93" x2="1046.04" y2="76.93" gradientTransform="rotate(90 971.09 252.24)" xlink:href="#a"/><linearGradient id="h" x1="489.5" y1="757.83" x2="489.5" y2="553.87" gradientTransform="rotate(90 453.44 674.03)" xlink:href="#a"/><linearGradient id="i" x1="458.84" y1="821.89" x2="458.84" y2="618.69" gradientTransform="rotate(90 456 700.31)" xlink:href="#a"/><linearGradient id="j" x1="419.51" y1="808.41" x2="419.51" y2="605.21" gradientTransform="rotate(90 420.015 703.665)" xlink:href="#a"/><linearGradient id="k" x1="315.06" y1="718.86" x2="315.06" y2="515.66" xlink:href="#a"/></defs><circle cx="720.55" cy="430.76" r="105" fill="url(#a)"/><circle cx="720.55" cy="430.76" r="100" fill="#f5f5f5"/><path d="M811 458.19A62.5 62.5 0 0 0 746.69 514h-18a3.64 3.64 0 0 0-3.64 3.64v6a3.64 3.64 0 0 0 3.64 3.64h18A62.5 62.5 0 1 0 811 458.19z" transform="translate(-87.65 -89.89)" fill="url(#b)" opacity=".5"/><path d="M722.54 372.04a58.75 58.75 0 0 0-60.41 52.47h-17.42a2.92 2.92 0 0 0-2.92 2.92v6.68a2.92 2.92 0 0 0 2.92 2.92h17.42a58.75 58.75 0 1 0 60.41-65z" fill="#fff"/><circle cx="720.55" cy="430.76" r="41.25" fill="#a1887f"/><path d="M741.8 410.76s11.77 18.28 8.41 32.5c-.01 0 13.44-22.34-8.41-32.5z" fill="#fff" opacity=".2"/><circle cx="746.8" cy="453.26" r="3.75" fill="#fff" opacity=".2"/><path transform="rotate(-12.75 -220.329 660.077)" fill="url(#c)" d="M119.09 158.34h213.27v308.72H119.09z"/><path transform="rotate(-12.75 -5.001 611.32)" fill="url(#d)" d="M334.38 109.62h213.27v308.72H334.38z"/><path fill="#fff" d="M4.185 99.627l203.81-45.753 66.443 295.97-203.811 45.753z"/><path fill="#f5f5f5" d="M217.64 50.382L420.482 4.483l66.653 294.563-202.842 45.899z"/><path fill="#e0e0e0" d="M209.548 92.725l21.818-4.937.658 2.906-21.818 4.937zm2.31 10.179l21.818-4.937.658 2.906-21.819 4.937zm2.302 10.191l21.818-4.937.658 2.906-21.819 4.937zm2.3 10.181l21.818-4.937.658 2.907-21.819 4.937zm2.31 10.179l21.818-4.937.658 2.907-21.819 4.937zm2.3 10.182l21.818-4.937.658 2.906-21.819 4.937zm2.31 10.179l21.818-4.937.657 2.907-21.818 4.937zm2.301 10.191l21.819-4.937.658 2.907-21.819 4.937zm2.31 10.179l21.819-4.937.657 2.907-21.818 4.937zm2.3 10.182l21.819-4.937.657 2.906-21.818 4.937zm2.309 10.179l21.82-4.937.657 2.906-21.818 4.937zm2.303 10.191l21.819-4.937.657 2.907-21.818 4.937zm2.3 10.182l21.819-4.938.657 2.907-21.818 4.937zm2.3 10.179l21.818-4.937.658 2.906-21.818 4.937zm2.3 10.181l21.818-4.937.658 2.906-21.818 4.938zm2.312 10.189l21.818-4.937.658 2.906-21.819 4.937zm2.3 10.181l21.818-4.937.658 2.907-21.819 4.937zm2.31 10.18l21.818-4.938.658 2.907-21.819 4.937zm2.299 10.18l21.819-4.936.658 2.906-21.819 4.937zm2.312 10.19l21.819-4.937.658 2.906-21.819 4.937zm2.3 10.181l21.819-4.937.658 2.907-21.819 4.937zm2.3 10.182l21.819-4.937.657 2.906-21.818 4.937zm2.31 10.179l21.819-4.937.657 2.906-21.818 4.937zm2.3 10.181l21.819-4.937.657 2.907-21.818 4.937z"/><path fill="#294ace" opacity=".3" d="M47.136 122.474l121.801-27.56 4.593 20.297-121.8 27.56zm-9.198 53.649l162.394-36.747 1.148 5.072-162.395 36.746zm2.677 11.847l162.394-36.747 1.148 5.072L41.762 193.04zm2.689 11.845l162.394-36.746 1.148 5.072L44.45 204.887zm2.672 11.845l77.813-17.607 1.148 5.071-77.813 17.608zm2.685 11.833l89.654-20.287 1.147 5.072-89.653 20.286zm2.674 11.842l162.394-36.746 1.148 5.072-162.395 36.746zm2.687 11.847l162.394-36.746 1.148 5.071-162.395 36.747zm2.678 11.84l150.554-34.067 1.148 5.072-150.554 34.067zm2.676 11.833l162.394-36.746 1.148 5.072-162.395 36.746zm2.677 11.853l84.581-19.139 1.148 5.072L63.2 287.78zm222.979-36.228l89.654-20.287 1.147 5.072-89.653 20.287zm2.674 11.843L450.1 221.576l1.148 5.072-162.395 36.746zm2.687 11.837l162.394-36.747 1.148 5.072L291.54 275.23zm2.679 11.84l150.554-34.067 1.147 5.072L294.22 287.07zm2.675 11.842l162.394-36.746 1.148 5.072-162.395 36.746zm2.677 11.843l84.581-19.138 1.148 5.071-84.582 19.14zm-170.882-16.469l98.11-22.2 15.312 67.67-98.11 22.2zM243.694 63.783l98.11-22.2 15.312 67.67-98.11 22.2zm96.023 70.733l98.11-22.2 15.311 67.669-98.11 22.2z"/><rect x="410.68" y="179.5" width="213.27" height="308.72" rx="13.44" ry="13.44" transform="rotate(-12.75 71.334 681.2)" fill="url(#e)"/><rect x="412.36" y="183.46" width="207.97" height="302.01" rx="13.44" ry="13.44" transform="rotate(-12.75 70.359 681.815)" fill="#294ace"/><path fill="#bdbdbd" d="M288.78 161.952l21.82-4.937.657 2.906-21.818 4.937zm2.31 10.179l21.82-4.937.657 2.907-21.819 4.937zm2.3 10.182l21.82-4.937.657 2.906-21.819 4.937zm2.313 10.188l21.818-4.937.658 2.907-21.819 4.937zm2.3 10.182l21.818-4.937.658 2.906-21.819 4.937zm2.309 10.179l21.819-4.937.657 2.907-21.818 4.937zm2.3 10.181l21.819-4.937.657 2.907-21.818 4.937zm2.3 10.18l21.818-4.937.658 2.906-21.818 4.937zm2.302 10.191l21.819-4.937.657 2.906-21.818 4.937zm2.3 10.181l21.819-4.937.657 2.907-21.818 4.937zm2.31 10.179l21.818-4.937.658 2.907-21.818 4.937zm2.3 10.182l21.818-4.937.658 2.906-21.818 4.937zm2.312 10.189l21.818-4.937.658 2.906-21.818 4.937zm2.3 10.181l21.818-4.937.658 2.906-21.818 4.937zm2.31 10.179l21.818-4.937.658 2.907-21.819 4.937zm2.3 10.181l21.818-4.937.658 2.907-21.819 4.937zm2.312 10.189l21.818-4.937.658 2.907-21.819 4.937zm2.3 10.182l21.818-4.937.658 2.906-21.819 4.937zm2.3 10.181l21.818-4.937.658 2.907-21.819 4.937zm2.309 10.179l21.819-4.937.657 2.907-21.818 4.937zm2.293 10.191l21.818-4.937.658 2.907-21.819 4.937zm2.31 10.18l21.818-4.937.657 2.906-21.818 4.937zm2.3 10.181l21.818-4.937.657 2.907-21.818 4.937zm2.309 10.179l21.818-4.937.658 2.907-21.818 4.937z"/><path fill="#69f0ae" d="M170.46 373.394l9.754-2.207 20.084 88.756-9.754 2.207z"/><path transform="rotate(-12.75 -186.114 795.89)" fill="url(#f)" d="M250.91 425.51h18v46h-18z" opacity=".5"/><path fill="#69f0ae" d="M160.292 339.808l14.63-3.31 9.49 41.94-14.63 3.31z"/><path fill="#fff" opacity=".3" d="M160.292 339.808l14.63-3.31 9.49 41.94-14.63 3.31z"/><path fill="#69f0ae" d="M192.278 460.73l5.852-1.325 1.324 5.852-5.852 1.324zM163.76 348.24l-3.9.88-1.95.44.44 1.95 3.75 16.58 1.95-.44-3.75-16.58 3.9-.88-.44-1.95z"/><path fill="#fff" opacity=".3" d="M163.76 348.24l-3.9.88-1.95.44.44 1.95 3.75 16.58 1.95-.44-3.75-16.58 3.9-.88-.44-1.95z"/><g opacity=".5" fill="#47e6b1"><path d="M183.55 654.76h3v17h-3z"/><path d="M193.55 661.76v3h-17v-3z"/></g><g opacity=".5" fill="#47e6b1"><path d="M726.55 32.76h3v17h-3z"/><path d="M736.55 39.76v3h-17v-3z"/></g><g opacity=".5" fill="#47e6b1"><path d="M636.55 249.76h3v17h-3z"/><path d="M646.55 256.76v3h-17v-3z"/></g><g opacity=".5" fill="#47e6b1"><path d="M894.15 288.76h3v17h-3z"/><path d="M904.15 295.77v3h-17v-3z"/></g><path d="M358.24 653.11a3.67 3.67 0 0 1-2-4.44 1.77 1.77 0 0 0 .08-.41 1.84 1.84 0 0 0-3.31-1.22 1.77 1.77 0 0 0-.2.36 3.67 3.67 0 0 1-4.44 2 1.77 1.77 0 0 0-.41-.08 1.84 1.84 0 0 0-1.22 3.31 1.77 1.77 0 0 0 .36.2 3.67 3.67 0 0 1 2 4.44 1.77 1.77 0 0 0-.08.41 1.84 1.84 0 0 0 3.33 1.23 1.77 1.77 0 0 0 .2-.36 3.67 3.67 0 0 1 4.44-2 1.77 1.77 0 0 0 .41.08 1.84 1.84 0 0 0 1.22-3.31 1.77 1.77 0 0 0-.38-.21zm183 12a3.67 3.67 0 0 1-2-4.44 1.77 1.77 0 0 0 .08-.41 1.84 1.84 0 0 0-3.31-1.22 1.77 1.77 0 0 0-.2.36 3.67 3.67 0 0 1-4.44 2 1.77 1.77 0 0 0-.41-.08 1.84 1.84 0 0 0-1.22 3.31 1.77 1.77 0 0 0 .36.2 3.67 3.67 0 0 1 2 4.44 1.77 1.77 0 0 0-.08.41 1.84 1.84 0 0 0 3.33 1.23 1.77 1.77 0 0 0 .2-.36 3.67 3.67 0 0 1 4.44-2 1.77 1.77 0 0 0 .41.08 1.84 1.84 0 0 0 1.22-3.31 1.77 1.77 0 0 0-.38-.21zm219-431a3.67 3.67 0 0 1-2-4.44 1.77 1.77 0 0 0 .08-.41 1.84 1.84 0 0 0-3.31-1.22 1.77 1.77 0 0 0-.2.36 3.67 3.67 0 0 1-4.44 2 1.77 1.77 0 0 0-.41-.08 1.84 1.84 0 0 0-1.22 3.31 1.77 1.77 0 0 0 .36.2 3.67 3.67 0 0 1 2 4.44 1.77 1.77 0 0 0-.08.41 1.84 1.84 0 0 0 3.33 1.23 1.77 1.77 0 0 0 .2-.36 3.67 3.67 0 0 1 4.44-2 1.77 1.77 0 0 0 .41.08 1.84 1.84 0 0 0 1.22-3.31 1.77 1.77 0 0 0-.38-.21zm152 161a3.67 3.67 0 0 1-2-4.44 1.77 1.77 0 0 0 .08-.41 1.84 1.84 0 0 0-3.31-1.22 1.77 1.77 0 0 0-.2.36 3.67 3.67 0 0 1-4.44 2 1.77 1.77 0 0 0-.41-.08 1.84 1.84 0 0 0-1.22 3.31 1.77 1.77 0 0 0 .36.2 3.67 3.67 0 0 1 2 4.44 1.77 1.77 0 0 0-.08.41 1.84 1.84 0 0 0 3.33 1.23 1.77 1.77 0 0 0 .2-.36 3.67 3.67 0 0 1 4.44-2 1.77 1.77 0 0 0 .41.08 1.84 1.84 0 0 0 1.22-3.31 1.77 1.77 0 0 0-.38-.21z" fill="#4d8af0" opacity=".5"/><circle cx="105.55" cy="599.76" r="6" fill="#f55f44" opacity=".5"/><circle cx="523.55" cy="50.76" r="6" fill="#4d8af0" opacity=".5"/><circle cx="498.55" cy="489.76" r="6" fill="#47e6b1" opacity=".5"/><circle cx="844.55" cy="639.76" r="6" fill="#f55f44" opacity=".5"/><path d="M848.9 179h286a6.28 6.28 0 0 1 6.28 6.28v152.94a6.29 6.29 0 0 1-6.29 6.29h-286a6.28 6.28 0 0 1-6.28-6.28V185.3a6.28 6.28 0 0 1 6.29-6.3z" transform="rotate(-73.39 887.71 275.646)" fill="url(#g)" opacity=".5"/><rect x="911.41" y="116.37" width="161.02" height="290.64" rx="13.64" ry="13.64" transform="matrix(.96 .29 -.29 .96 28.59 -362.58)" fill="#fff"/><path data-name="&lt;Path&gt;" d="M982.5 51.11a13.05 13.05 0 0 1-15.5 7l-53.29-16a13.05 13.05 0 0 1-9.15-14.32l-28.21-8.37a6.12 6.12 0 0 0-7.61 4.11l-75.47 252.82a6.12 6.12 0 0 0 4.11 7.61l134.84 40.23a6.12 6.12 0 0 0 7.61-4.11l75.44-252.82a6.12 6.12 0 0 0-4.11-7.61z" fill="#e0e0e0"/><rect x="1010.74" y="132.3" width="35.88" height="2.24" rx="1.12" ry="1.12" transform="rotate(15.89 1307.028 -225.51)" fill="#dbdbdb"/><circle cx="1053.33" cy="140.21" r="1.35" transform="rotate(-74.11 949.947 153.318)" fill="#dbdbdb"/><path fill="#fff" d="M871.585 69.416l42.42 11.685-10.09 36.635-42.42-11.684z"/><path fill="#294ace" opacity=".3" d="M856.97 122.433l42.42 11.684-10.091 36.636-42.42-11.684z"/><path fill="#fff" d="M842.372 175.472l42.42 11.684-10.091 36.636-42.42-11.685z"/><path fill="#3ad29f" opacity=".3" d="M827.767 228.488l42.42 11.685-10.091 36.635-42.42-11.684z"/><path fill="#fff" d="M922.216 92.7l55.918 15.403-1.063 3.856-55.917-15.402zm-3.188 11.568l55.918 15.403-1.063 3.856-55.917-15.402zm-11.152 40.486l55.918 15.402-1.063 3.856-55.917-15.402zm-3.188 11.577l55.918 15.402-1.063 3.857-55.917-15.403zm-11.152 40.485l55.918 15.403-1.063 3.856-55.917-15.402zm-3.188 11.568l55.918 15.402-1.063 3.856-55.917-15.402zm-11.152 40.495l55.918 15.402-1.063 3.857-55.917-15.403zm-3.188 11.567l55.918 15.403-1.063 3.856-55.917-15.402z"/><path transform="rotate(-52.76 337.109 753.473)" fill="url(#h)" d="M369.63 678.91h203.96v62.36H369.63z" opacity=".5"/><path fill="#e0e0e0" d="M421.713 522.463l47.2 35.88-121.774 160.2-47.202-35.88z"/><path fill="#4d8af0" d="M426.717 530.335l33.365 25.362-25.362 33.365-33.365-25.362z"/><path fill="#4d8af0" opacity=".5" d="M396.105 570.622l33.365 25.362-25.362 33.365-33.365-25.362z"/><path fill="#4d8af0" opacity=".3" d="M365.475 610.904l33.364 25.362-25.362 33.365-33.365-25.362z"/><path transform="rotate(-71.1 329.324 719.544)" fill="url(#i)" d="M334.41 671.97h203.2v62.36h-203.2z" opacity=".5"/><path fill="#f5f5f5" d="M353.227 509.001l56.093 19.205-64.936 189.662-56.093-19.205z"/><path fill="#ff5252" d="M360.437 514.89l39.65 13.576-13.575 39.65-39.65-13.575z"/><path fill="#ff5252" opacity=".5" d="M344.055 562.76l39.65 13.576-13.575 39.65-39.65-13.575z"/><path fill="#ff5252" opacity=".3" d="M327.66 610.64l39.65 13.576-13.575 39.65-39.65-13.575z"/><path transform="rotate(-82.8 322.026 707.908)" fill="url(#j)" d="M315.26 671.97h203.2v62.36h-203.2z" opacity=".5"/><path fill="#f5f5f5" d="M312.91 510.15l58.822 7.43-25.126 198.89-58.822-7.431z"/><path fill="#69f0ae" d="M321.134 514.455l41.58 5.253-5.253 41.58-41.58-5.253z"/><path fill="#69f0ae" opacity=".5" d="M314.793 564.654l41.579 5.252-5.253 41.58-41.58-5.253z"/><path fill="#69f0ae" opacity=".3" d="M308.45 614.853l41.58 5.253-5.252 41.58-41.58-5.253z"/><path fill="url(#k)" d="M283.88 515.66h62.36v203.2h-62.36z" opacity=".5"/><path fill="#fff" d="M285.92 517.02h59.29v200.47h-59.29z"/><path fill="#294ace" d="M294.61 520.26h41.91v41.91h-41.91z"/><path fill="#294ace" opacity=".5" d="M294.61 570.86h41.91v41.91h-41.91z"/><path fill="#294ace" opacity=".3" d="M294.61 621.47h41.91v41.91h-41.91z"/></svg>