<svg width="375" height="52" xmlns="http://www.w3.org/2000/svg"><path d="M28.8 5.7c0-4.1-3.9-5.4-7.2-5.3v.4c2 .2 3.5 1 3.5 2.3 0 .9-.7 2.1-2.6 2.1-1.6 0-4.1-.9-6.6-1.7-2.7-.9-5.2-1.8-7.3-1.8-4.1 0-7.3 3.1-7.3 6.9 0 3.1 2.4 4.1 3.3 4.5l.1-.2c-.6-.4-1-.9-1-2.2 0-1.1.8-2.6 2.9-2.6 1.9 0 4.4.9 7.8 1.8 2.9.8 6 1.6 7.7 1.8v6.7l-3.2 2.7 3.2 2.8v9.2c-1.7 1-3.6 1.3-5.3 1.3-3.1 0-5.9-.9-8.2-3.4l8.7-4.2V12.1L6.7 16.9c1.1-2.8 3.2-4.9 5.5-6.3l-.1-.2C5.8 12.1 0 17.9 0 25.1 0 33.7 6.9 40 14.8 40c8.6 0 13.6-6.7 13.5-13.8h-.2c-1.3 2.7-3.3 5.3-5.7 6.7v-9l3.4-2.7-3.4-2.7v-6.7c3.2-.1 6.4-2.2 6.4-6.1zM10.9 29.3l-2.5 1.3c-1.5-2-2.5-4.7-2.5-8.3 0-1.5.2-3.5.7-4.9l4.4-2-.1 13.9zm39.9-11.8l-1.7 1.3-5-4.5-5.9 4.5V1.4l-8 5.5c.9.3 2 .8 2 2.9V34l-2.7 2.1.3.3 1.4-1 4.7 4.3 6.4-4.2-.3-.4-1.6 1.1-2.2-2.2V19.4l1.5-1.1 3.5 3V34c0 8-1.8 9.7-5.4 11v.2c6 .3 11.4-1.8 11.4-12.1V19.3l1.8-1.5-.2-.3zm10.7 22.1l9.2-7.4-.3-.4-4.8 3.8-5.6-4.3v-2.7l9.6-6.8-4.8-7.5-10.7 5.9v13.9L52 35.7l.3.3 2-1.6 7.2 5.2zM60 28V17.5l4.6 7.3L60 28zm48.9-24.3c0-.7-.2-1.2-.4-2h-.2c-.7 1.8-1.4 2.7-3.4 2.7-1.8 0-3.2-1.1-4-1.9 0 .1-6.1 7-6.1 7l.3.3 1.7-2c1.3 1 2.5 2.2 5.4 2.2v17.7L89.9 6.2c-1-1.6-2.6-4-5.5-4-3.3 0-5.9 2.9-5.5 7.7h.2c.3-1.2 1-2.7 2.4-2.7 1.2 0 2.1 1.1 2.7 2.1v6.9c-3.8 0-6 1.8-6 4.8 0 1.3.9 4 3.5 4.4v-.2c-.4-.4-.7-.7-.7-1.4 0-1.2.9-1.8 2.4-1.8.3 0 .6.1.8.1v9c-4.5.1-8 2.5-8 6.8 0 4 3.5 5.9 7.1 5.7v-.2c-2.3-.3-3.4-1.4-3.4-3.1 0-1.8 1.3-2.8 3-2.8s2.9 1.1 4 2.3L93 33l-.3-.3-1.6 1.8c-2.3-2.1-3.8-3-6.5-3.4V9.9l17.1 29.8h.9V10c3.4-.2 6.3-2.6 6.3-6.3zm5.8 35.9l9.2-7.4-.3-.4-4.8 3.8-5.6-4.4v-2.7l9.6-6.8-4.8-7.5-10.7 5.9V34l-2.1 1.6.3.3 2-1.6 7.2 5.3zM113.3 28V17.5l4.6 7.3-4.6 3.2zm43.4-11.3l-1.4 1.1-4-3.4-4.7 4.2 1.9 1.8v15.8l-4.8-3.3V20.1l1.7-1.2-4.9-4.6-4.6 4.2 1.9 1.8v15.3l-.3.2-4.5-3.3V20c0-2.9-1.5-3.8-3.3-4.9-1.6-1-2.4-1.9-2.4-3.3 0-1.6 1.4-2.3 1.9-2.5-1.6-.1-6.1 1.6-6.2 5.7-.1 2.1 1 3 2 4 1.1 1 2.1 2 2.1 3.7V35l-2.2 1.7.3.3 2.1-1.6 5.4 4.4 5.2-3.6 5.7 3.6 11.1-6.6V18.9l2.5-1.9-.5-.3zm37.2-12l-2.1 1.9-4.7-4.1-6.4 5.2V2.9h-.4v34.7c-.7-.1-2.2-.5-3.8-.8v-29c0-2.1-1.5-5-5.3-5-3.9 0-6.2 3.2-6.2 6h.2c.2-1.3 1.1-2.4 2.3-2.4 1.3 0 2.4.8 2.4 3.6v8.3c-3.6.2-5.8 2.4-5.8 4.8 0 1.4.9 3.9 3.6 4v-.2c-.9-.4-1.1-.9-1.1-1.4 0-1.2 1.2-1.6 2.8-1.6h.4v13.3c-3.1 1.1-4.5 3.1-4.5 5.7 0 3.5 2.8 6.3 7 6.3 2.9 0 5-.5 7.7-1.1 2.2-.5 4.5-1 5.8-1 1.6 0 2.3.7 2.3 1.9 0 1.5-.6 2.2-1.4 2.5v.2c3.5-.7 5.5-2.7 5.5-5.8 0-3.2-3.1-5.2-6.5-5.2-1.8 0-5 .6-7.6 1.2-2.9.7-5.5 1-6.4 1-1.5 0-3.3-.7-3.3-2.6 0-1.8 1.5-3.2 5.1-3.2 2 0 3.9.3 6.3.9 2.6.6 4.3 1.3 6.6 1.3 3.1 0 5.6-1.1 5.6-5.6V7.1l2.3-2.1-.4-.3zm-8.7 13.9c-.6.6-1.2 1.1-2.3 1.1-1.2 0-1.8-.6-2.3-1.1V8.2l1.5-1.2 3.1 2.6v9zm0 5c-.5-.5-1.2-1-2.3-1-1.1 0-1.9.6-2.3 1v-4.4c.5.4 1.2 1 2.3 1 1.1 0 1.8-.5 2.3-1v4.4zm0 10.4c0 1.7-.9 3.6-3.1 3.6-.4 0-1.2-.1-1.5-.1V24.1c.5-.5 1.2-1.1 2.3-1.1 1.1 0 1.7.5 2.3 1.1V34zm18 5.6l10.3-6.4v-14l-6.7-4.9-10.3 5.9v13.9l-2 1.6.2.3 1.7-1.4 6.8 5zm-.7-7.2v-15l5.2 3.8v14.9l-5.2-3.7zm30.7-17.8c-.8.6-1.5.9-2.3.9-.8 0-1.8-.5-2.3-1.2 0 .1-3.8 4.1-3.8 4.1l-3.8-4.1-6.3 4.3.2.4 1.7-1.1 2.3 2.5V34l-2.7 2.1.3.3 1.4-1 5.1 4.3 6.5-4.3-.2-.3-1.7 1-2.6-2.4V18.8c1.1 1.2 2.3 2.2 3.7 2.2 2.4 0 4.2-3.1 4.5-6.4zm24.4 20.1l-1.9 1.2L245 20l.6-.8c1.2.7 2.2 1.7 4.4 1.7s5-2.3 5.3-6.6c-.6.8-1.7 1.7-3.5 1.7-1.3 0-2.6-.9-3.4-1.7L241.1 25l9.6 14.7 7-4.6-.1-.4zm-13 .4l-1.6 1.1-2.2-2.2V1.4l-8 5.5c.9.3 2 .8 2 2.9V34l-2.7 2.1.3.3 1.4-1 4.7 4.3 6.4-4.2-.3-.4zm46.9-29.4c0-4.1-3.9-5.4-7.2-5.3v.4c2 .2 3.5 1 3.5 2.3 0 .9-.7 2.1-2.6 2.1-1.6 0-4.1-.9-6.6-1.7-2.7-.9-5.2-1.8-7.3-1.8-4.1 0-7.3 3.1-7.3 6.9 0 3.1 2.4 4.1 3.3 4.5l.1-.2c-.6-.4-1-.9-1-2.2 0-1.1.8-2.6 2.9-2.6 1.9 0 4.4.9 7.8 1.8 2.9.8 6 1.6 7.7 1.8v6.7l-3.2 2.7 3.2 2.8v9.2c-1.7 1-3.6 1.3-5.3 1.3-3.1 0-5.9-.9-8.2-3.4l8.7-4.2V12.1l-10.7 4.7c1.1-2.8 3.2-4.9 5.5-6.3l-.1-.2c-6.3 1.7-12.1 7.5-12.1 14.7 0 8.6 6.9 14.9 14.8 14.9 8.6 0 13.6-6.7 13.5-13.8h-.2c-1.3 2.7-3.3 5.3-5.7 6.7v-9l3.4-2.7-3.4-2.7v-6.7c3.3 0 6.5-2.1 6.5-6zm-18 23.6l-2.5 1.3c-1.5-2-2.5-4.7-2.5-8.3 0-1.5.2-3.5.7-4.9l4.4-2-.1 13.9zM298 4.1l-4.4 3.7 3.8 4.3 4.4-3.7-3.8-4.3zm6.8 31l-1.6 1.1L301 34V19.3l1.9-1.5-.3-.3-1.6 1.2-3.7-4.4-6.1 4.2.2.4 1.5-1 2 2.5V34l-2.7 2.1.3.3 1.4-1 4.7 4.3 6.4-4.2-.2-.4zm34-.2l-1.5 1-2.4-2.3V19.3l1.9-1.5-.3-.3-1.7 1.3-5-4.5-5.7 4.4-5-4.4-5.6 4.4-3.8-4.4-6.1 4.2.2.4 1.5-1 2.2 2.5v13.5l-1.7 1.7 4.8 4.1 4.7-4.2-1.9-1.8V19.2l1.3-.9 3.5 3v12.6l-1.6 1.7 4.9 4.1 4.6-4.2-1.9-1.8V19.2l1.2-1 3.5 3.1v12.4l-1.4 1.5 4.9 4.5 6.5-4.4-.1-.4zm17.7-3l-4.8 3.8-5.6-4.4v-2.7l9.6-6.8-4.8-7.5-10.7 5.9v14.2l7.3 5.3 9.2-7.4-.2-.4zM346.1 28V17.5l4.6 7.3-4.6 3.2zm28.9-2l-4.1-3.1c2.7-2.4 3.7-5.4 3.7-7.6 0-.3-.1-.9-.1-1.4h-.2c-.4 1.1-1.5 2.1-3.1 2.1s-2.6-.9-3.6-2l-9.4 5.2v7.6l3.6 2.8c-3.6 3.2-4.3 5.2-4.3 7 0 1.9 1.1 3.4 2.9 4.1l.2-.3c-.5-.4-.9-.7-.9-1.6 0-.7.7-1.8 2.3-1.8 2.1 0 3.3 1.4 4 2.2 0-.1 9-5.5 9-5.5V26zm-2.1-6.2c-1.4 2.5-4.5 5-6.4 6.4l-2.3-1.9v-7.4c.9 2 2.8 3.7 5.2 3.7 1.5 0 2.4-.3 3.5-.8zM369 36.4c-1.1-2.4-3.3-4.1-5.9-4.1-.6 0-2.5-.1-4.1 1 1-1.6 3.8-4.5 7.5-6.7l2.5 2.1v7.7z" fill-opacity=".2"/></svg>