<svg width="1026" height="240" xmlns="http://www.w3.org/2000/svg"><path d="M240 120c0 66.274-53.726 120-120 120S0 186.274 0 120 53.726 0 120 0s120 53.726 120 120zm-104 0h-34V84h34c9.941 0 18 8.059 18 18 0 9.94-8.059 18-18 18zm0-60H78v120h24v-36h34c23.196 0 42-18.804 42-42s-18.804-42-42-42zm230.068 45.332c0-6.6-5.075-10.606-11.666-10.606H336.73v21.092h17.67c6.592 0 11.667-4.006 11.667-10.486zM320 160V80h36.753c17.086 0 26.39 11.546 26.39 25.332 0 13.666-9.42 25.212-26.39 25.212H336.73V160H320zm73.323 0v-58.324h14.956v7.661c4.125-4.95 11.08-9.071 18.15-9.071v14.606c-1.064-.235-2.36-.35-4.124-.35-4.95 0-11.551 2.825-14.026 6.481V160h-14.956zm83.434-29.927c0-8.836-5.19-16.496-14.61-16.496-9.316 0-14.497 7.66-14.497 16.496 0 8.956 5.181 16.611 14.496 16.611 9.421 0 14.611-7.655 14.611-16.61m-44.658 0c0-16.142 11.311-29.808 30.047-29.808 18.851 0 30.162 13.666 30.162 29.807S480.998 160 462.146 160c-18.736 0-30.047-13.786-30.047-29.927m110.556 10.131v-20.146c-2.475-3.771-7.895-6.481-12.846-6.481-8.595 0-14.486 6.716-14.486 16.496 0 9.896 5.891 16.61 14.486 16.61 4.951 0 10.371-2.71 12.846-6.48zm0 19.796v-8.72c-4.48 5.655-10.601 8.72-17.556 8.72-14.256 0-25.212-10.84-25.212-29.927 0-18.496 10.726-29.807 25.212-29.807 6.715 0 13.076 2.826 17.556 8.716V80h15.081v80h-15.081zm68.373 0v-8.601c-3.885 4.241-10.716 8.601-20.022 8.601-12.49 0-18.381-6.835-18.381-17.911v-40.413h14.957v34.523c0 7.895 4.125 10.485 10.485 10.485 5.775 0 10.37-3.18 12.96-6.48v-38.528h14.967V160h-14.966zm26.199-29.927c0-17.436 12.721-29.807 30.163-29.807 11.666 0 18.736 5.065 22.505 10.251l-9.784 9.185c-2.707-4.005-6.832-6.125-12.011-6.125-9.077 0-15.437 6.6-15.437 16.496 0 9.896 6.36 16.611 15.437 16.611 5.18 0 9.304-2.355 12.01-6.245l9.785 9.19c-3.77 5.186-10.84 10.371-22.505 10.371-17.442 0-30.163-12.37-30.163-29.927m65.533 14.257v-29.573h-9.42v-13.08h9.42V86.124h14.966v15.551h11.542v13.081h-11.542v25.567c0 3.65 1.88 6.36 5.18 6.36 2.237 0 4.365-.825 5.182-1.765l3.185 11.426c-2.236 2.005-6.246 3.655-12.491 3.655-10.487 0-16.022-5.42-16.022-15.67M825.111 160v-34.522h-37.117V160h-16.722V80h16.722v30.867h37.117V80h16.846v80zm70.387 0v-8.601c-3.885 4.241-10.716 8.601-20.022 8.601-12.49 0-18.38-6.835-18.38-17.911v-40.413h14.955v34.523c0 7.895 4.126 10.485 10.486 10.485 5.775 0 10.371-3.18 12.961-6.48v-38.528h14.966V160h-14.966zm68.248 0v-35.817c0-7.896-4.116-10.606-10.486-10.606-5.89 0-10.36 3.3-12.96 6.6V160h-14.957v-58.324H940.3v7.306c3.655-4.24 10.725-8.716 19.916-8.716 12.605 0 18.611 7.066 18.611 18.141V160h-15.08zm32.916-15.67v-29.573h-9.422v-13.08h9.422V86.124h14.966v15.551h11.54v13.081h-11.54v25.567c0 3.65 1.88 6.36 5.18 6.36 2.236 0 4.365-.825 5.19-1.765l3.176 11.426c-2.236 2.005-6.246 3.655-12.491 3.655-10.486 0-16.021-5.42-16.021-15.67" fill-rule="evenodd" fill-opacity=".2"/></svg>