<?xml version="1.0" encoding="UTF-8"?>
<svg width="375px" height="52px" viewBox="0 0 375 52" version="1.1" xmlns="http://www.w3.org/2000/svg" xmlns:xlink="http://www.w3.org/1999/xlink">
    <!-- Generator: Sketch 43.2 (39069) - http://www.bohemiancoding.com/sketch -->
    <title>nyt</title>
    <desc>Created with Sketch.</desc>
    <defs></defs>
    <g id="Page-1" stroke="none" stroke-width="1" fill="none" fill-rule="evenodd" fill-opacity="0.2">
        <g id="nyt" fill-rule="nonzero" fill="#000000">
            <path d="M28.8,5.7 C28.8,1.6 24.9,0.3 21.6,0.4 L21.6,0.8 C23.6,1 25.1,1.8 25.1,3.1 C25.1,4 24.4,5.2 22.5,5.2 C20.9,5.2 18.4,4.3 15.9,3.5 C13.2,2.6 10.7,1.7 8.6,1.7 C4.5,1.7 1.3,4.8 1.3,8.6 C1.3,11.7 3.7,12.7 4.6,13.1 L4.7,12.9 C4.1,12.5 3.7,12 3.7,10.7 C3.7,9.6 4.5,8.1 6.6,8.1 C8.5,8.1 11,9 14.4,9.9 C17.3,10.7 20.4,11.5 22.1,11.7 L22.1,18.4 L18.9,21.1 L22.1,23.9 L22.1,33.1 C20.4,34.1 18.5,34.4 16.8,34.4 C13.7,34.4 10.9,33.5 8.6,31 L17.3,26.8 L17.3,12.1 L6.7,16.9 C7.8,14.1 9.9,12 12.2,10.6 L12.1,10.4 C5.8,12.1 0,17.9 0,25.1 C0,33.7 6.9,40 14.8,40 C23.4,40 28.4,33.3 28.3,26.2 L28.1,26.2 C26.8,28.9 24.8,31.5 22.4,32.9 L22.4,23.9 L25.8,21.2 L22.4,18.5 L22.4,11.8 C25.6,11.7 28.8,9.6 28.8,5.7 L28.8,5.7 Z M10.9,29.3 L8.4,30.6 C6.9,28.6 5.9,25.9 5.9,22.3 C5.9,20.8 6.1,18.8 6.6,17.4 L11,15.4 L10.9,29.3 L10.9,29.3 Z M50.8,17.5 L49.1,18.8 L44.1,14.3 L38.2,18.8 L38.2,1.4 L30.2,6.9 C31.1,7.2 32.2,7.7 32.2,9.8 L32.2,34 L29.5,36.1 L29.8,36.4 L31.2,35.4 L35.9,39.7 L42.3,35.5 L42,35.1 L40.4,36.2 L38.2,34 L38.2,19.4 L39.7,18.3 L43.2,21.3 L43.2,34 C43.2,42 41.4,43.7 37.8,45 L37.8,45.2 C43.8,45.5 49.2,43.4 49.2,33.1 L49.2,19.3 L51,17.8 L50.8,17.5 L50.8,17.5 Z M61.5,39.6 L70.7,32.2 L70.4,31.8 L65.6,35.6 L60,31.3 L60,28.6 L69.6,21.8 L64.8,14.3 L54.1,20.2 L54.1,34.1 L52,35.7 L52.3,36 L54.3,34.4 L61.5,39.6 L61.5,39.6 Z M60,28 L60,17.5 L64.6,24.8 L60,28 L60,28 Z M108.9,3.7 C108.9,3 108.7,2.5 108.5,1.7 L108.3,1.7 C107.6,3.5 106.9,4.4 104.9,4.4 C103.1,4.4 101.7,3.3 100.9,2.5 C100.9,2.6 94.8,9.5 94.8,9.5 L95.1,9.8 L96.8,7.8 C98.1,8.8 99.3,10 102.2,10 L102.2,27.7 L89.9,6.2 C88.9,4.6 87.3,2.2 84.4,2.2 C81.1,2.2 78.5,5.1 78.9,9.9 L79.1,9.9 C79.4,8.7 80.1,7.2 81.5,7.2 C82.7,7.2 83.6,8.3 84.2,9.3 L84.2,16.2 C80.4,16.2 78.2,18 78.2,21 C78.2,22.3 79.1,25 81.7,25.4 L81.7,25.2 C81.3,24.8 81,24.5 81,23.8 C81,22.6 81.9,22 83.4,22 C83.7,22 84,22.1 84.2,22.1 L84.2,31.1 C79.7,31.2 76.2,33.6 76.2,37.9 C76.2,41.9 79.7,43.8 83.3,43.6 L83.3,43.4 C81,43.1 79.9,42 79.9,40.3 C79.9,38.5 81.2,37.5 82.9,37.5 C84.6,37.5 85.8,38.6 86.9,39.8 L93,33 L92.7,32.7 L91.1,34.5 C88.8,32.4 87.3,31.5 84.6,31.1 L84.6,9.9 L101.7,39.7 L102.6,39.7 L102.6,10 C106,9.8 108.9,7.4 108.9,3.7 L108.9,3.7 Z M114.7,39.6 L123.9,32.2 L123.6,31.8 L118.8,35.6 L113.2,31.2 L113.2,28.5 L122.8,21.7 L118,14.2 L107.3,20.1 L107.3,34 L105.2,35.6 L105.5,35.9 L107.5,34.3 L114.7,39.6 L114.7,39.6 Z M113.3,28 L113.3,17.5 L117.9,24.8 L113.3,28 L113.3,28 Z M156.7,16.7 L155.3,17.8 L151.3,14.4 L146.6,18.6 L148.5,20.4 L148.5,36.2 L143.7,32.9 L143.7,20.1 L145.4,18.9 L140.5,14.3 L135.9,18.5 L137.8,20.3 L137.8,35.6 L137.5,35.8 L133,32.5 L133,20 C133,17.1 131.5,16.2 129.7,15.1 C128.1,14.1 127.3,13.2 127.3,11.8 C127.3,10.2 128.7,9.5 129.2,9.3 C127.6,9.2 123.1,10.9 123,15 C122.9,17.1 124,18 125,19 C126.1,20 127.1,21 127.1,22.7 L127.1,35 L124.9,36.7 L125.2,37 L127.3,35.4 L132.7,39.8 L137.9,36.2 L143.6,39.8 L154.7,33.2 L154.7,18.9 L157.2,17 L156.7,16.7 L156.7,16.7 Z M193.9,4.7 L191.8,6.6 L187.1,2.5 L180.7,7.7 L180.7,2.9 L180.3,2.9 L180.3,37.6 C179.6,37.5 178.1,37.1 176.5,36.8 L176.5,7.8 C176.5,5.7 175,2.8 171.2,2.8 C167.3,2.8 165,6 165,8.8 L165.2,8.8 C165.4,7.5 166.3,6.4 167.5,6.4 C168.8,6.4 169.9,7.2 169.9,10 L169.9,18.3 C166.3,18.5 164.1,20.7 164.1,23.1 C164.1,24.5 165,27 167.7,27.1 L167.7,26.9 C166.8,26.5 166.6,26 166.6,25.5 C166.6,24.3 167.8,23.9 169.4,23.9 L169.8,23.9 L169.8,37.2 C166.7,38.3 165.3,40.3 165.3,42.9 C165.3,46.4 168.1,49.2 172.3,49.2 C175.2,49.2 177.3,48.7 180,48.1 C182.2,47.6 184.5,47.1 185.8,47.1 C187.4,47.1 188.1,47.8 188.1,49 C188.1,50.5 187.5,51.2 186.7,51.5 L186.7,51.7 C190.2,51 192.2,49 192.2,45.9 C192.2,42.7 189.1,40.7 185.7,40.7 C183.9,40.7 180.7,41.3 178.1,41.9 C175.2,42.6 172.6,42.9 171.7,42.9 C170.2,42.9 168.4,42.2 168.4,40.3 C168.4,38.5 169.9,37.1 173.5,37.1 C175.5,37.1 177.4,37.4 179.8,38 C182.4,38.6 184.1,39.3 186.4,39.3 C189.5,39.3 192,38.2 192,33.7 L192,7.1 L194.3,5 L193.9,4.7 L193.9,4.7 Z M185.2,18.6 C184.6,19.2 184,19.7 182.9,19.7 C181.7,19.7 181.1,19.1 180.6,18.6 L180.6,8.2 L182.1,7 L185.2,9.6 L185.2,18.6 L185.2,18.6 Z M185.2,23.6 C184.7,23.1 184,22.6 182.9,22.6 C181.8,22.6 181,23.2 180.6,23.6 L180.6,19.2 C181.1,19.6 181.8,20.2 182.9,20.2 C184,20.2 184.7,19.7 185.2,19.2 L185.2,23.6 L185.2,23.6 Z M185.2,34 C185.2,35.7 184.3,37.6 182.1,37.6 C181.7,37.6 180.9,37.5 180.6,37.5 L180.6,24.1 C181.1,23.6 181.8,23 182.9,23 C184,23 184.6,23.5 185.2,24.1 L185.2,34 L185.2,34 Z M203.2,39.6 L213.5,33.2 L213.5,19.2 L206.8,14.3 L196.5,20.2 L196.5,34.1 L194.5,35.7 L194.7,36 L196.4,34.6 L203.2,39.6 L203.2,39.6 Z M202.5,32.4 L202.5,17.4 L207.7,21.2 L207.7,36.1 L202.5,32.4 L202.5,32.4 Z M233.2,14.6 C232.4,15.2 231.7,15.5 230.9,15.5 C230.1,15.5 229.1,15 228.6,14.3 C228.6,14.4 224.8,18.4 224.8,18.4 L221,14.3 L214.7,18.6 L214.9,19 L216.6,17.9 L218.9,20.4 L218.9,34 L216.2,36.1 L216.5,36.4 L217.9,35.4 L223,39.7 L229.5,35.4 L229.3,35.1 L227.6,36.1 L225,33.7 L225,18.8 C226.1,20 227.3,21 228.7,21 C231.1,21 232.9,17.9 233.2,14.6 L233.2,14.6 Z M257.6,34.7 L255.7,35.9 L245,20 L245.6,19.2 C246.8,19.9 247.8,20.9 250,20.9 C252.2,20.9 255,18.6 255.3,14.3 C254.7,15.1 253.6,16 251.8,16 C250.5,16 249.2,15.1 248.4,14.3 L241.1,25 L250.7,39.7 L257.7,35.1 L257.6,34.7 L257.6,34.7 Z M244.6,35.1 L243,36.2 L240.8,34 L240.8,1.4 L232.8,6.9 C233.7,7.2 234.8,7.7 234.8,9.8 L234.8,34 L232.1,36.1 L232.4,36.4 L233.8,35.4 L238.5,39.7 L244.9,35.5 L244.6,35.1 L244.6,35.1 Z M291.5,5.7 C291.5,1.6 287.6,0.3 284.3,0.4 L284.3,0.8 C286.3,1 287.8,1.8 287.8,3.1 C287.8,4 287.1,5.2 285.2,5.2 C283.6,5.2 281.1,4.3 278.6,3.5 C275.9,2.6 273.4,1.7 271.3,1.7 C267.2,1.7 264,4.8 264,8.6 C264,11.7 266.4,12.7 267.3,13.1 L267.4,12.9 C266.8,12.5 266.4,12 266.4,10.7 C266.4,9.6 267.2,8.1 269.3,8.1 C271.2,8.1 273.7,9 277.1,9.9 C280,10.7 283.1,11.5 284.8,11.7 L284.8,18.4 L281.6,21.1 L284.8,23.9 L284.8,33.1 C283.1,34.1 281.2,34.4 279.5,34.4 C276.4,34.4 273.6,33.5 271.3,31 L280,26.8 L280,12.1 L269.3,16.8 C270.4,14 272.5,11.9 274.8,10.5 L274.7,10.3 C268.4,12 262.6,17.8 262.6,25 C262.6,33.6 269.5,39.9 277.4,39.9 C286,39.9 291,33.2 290.9,26.1 L290.7,26.1 C289.4,28.8 287.4,31.4 285,32.8 L285,23.8 L288.4,21.1 L285,18.4 L285,11.7 C288.3,11.7 291.5,9.6 291.5,5.7 L291.5,5.7 Z M273.5,29.3 L271,30.6 C269.5,28.6 268.5,25.9 268.5,22.3 C268.5,20.8 268.7,18.8 269.2,17.4 L273.6,15.4 L273.5,29.3 L273.5,29.3 Z M298,4.1 L293.6,7.8 L297.4,12.1 L301.8,8.4 L298,4.1 L298,4.1 Z M304.8,35.1 L303.2,36.2 L301,34 L301,19.3 L302.9,17.8 L302.6,17.5 L301,18.7 L297.3,14.3 L291.2,18.5 L291.4,18.9 L292.9,17.9 L294.9,20.4 L294.9,34 L292.2,36.1 L292.5,36.4 L293.9,35.4 L298.6,39.7 L305,35.5 L304.8,35.1 L304.8,35.1 Z M338.8,34.9 L337.3,35.9 L334.9,33.6 L334.9,19.3 L336.8,17.8 L336.5,17.5 L334.8,18.8 L329.8,14.3 L324.1,18.7 L319.1,14.3 L313.5,18.7 L309.7,14.3 L303.6,18.5 L303.8,18.9 L305.3,17.9 L307.5,20.4 L307.5,33.9 L305.8,35.6 L310.6,39.7 L315.3,35.5 L313.4,33.7 L313.4,19.2 L314.7,18.3 L318.2,21.3 L318.2,33.9 L316.6,35.6 L321.5,39.7 L326.1,35.5 L324.2,33.7 L324.2,19.2 L325.4,18.2 L328.9,21.3 L328.9,33.7 L327.5,35.2 L332.4,39.7 L338.9,35.3 L338.8,34.9 L338.8,34.9 Z M356.5,31.9 L351.7,35.7 L346.1,31.3 L346.1,28.6 L355.7,21.8 L350.9,14.3 L340.2,20.2 L340.2,34.4 L347.5,39.7 L356.7,32.3 L356.5,31.9 L356.5,31.9 Z M346.1,28 L346.1,17.5 L350.7,24.8 L346.1,28 L346.1,28 Z M375,26 L370.9,22.9 C373.6,20.5 374.6,17.5 374.6,15.3 C374.6,15 374.5,14.4 374.5,13.9 L374.3,13.9 C373.9,15 372.8,16 371.2,16 C369.6,16 368.6,15.1 367.6,14 L358.2,19.2 L358.2,26.8 L361.8,29.6 C358.2,32.8 357.5,34.8 357.5,36.6 C357.5,38.5 358.6,40 360.4,40.7 L360.6,40.4 C360.1,40 359.7,39.7 359.7,38.8 C359.7,38.1 360.4,37 362,37 C364.1,37 365.3,38.4 366,39.2 C366,39.1 375,33.7 375,33.7 L375,26 L375,26 Z M372.9,19.8 C371.5,22.3 368.4,24.8 366.5,26.2 L364.2,24.3 L364.2,16.9 C365.1,18.9 367,20.6 369.4,20.6 C370.9,20.6 371.8,20.3 372.9,19.8 L372.9,19.8 Z M369,36.4 C367.9,34 365.7,32.3 363.1,32.3 C362.5,32.3 360.6,32.2 359,33.3 C360,31.7 362.8,28.8 366.5,26.6 L369,28.7 L369,36.4 L369,36.4 Z" id="Shape"></path>
        </g>
    </g>
</svg>