<?xml version="1.0" encoding="UTF-8"?>
<svg width="1026px" height="240px" viewBox="0 0 1026 240" version="1.1" xmlns="http://www.w3.org/2000/svg" xmlns:xlink="http://www.w3.org/1999/xlink">
    <!-- Generator: Sketch 43.2 (39069) - http://www.bohemiancoding.com/sketch -->
    <title>product-hunt-logo-horizontal-black</title>
    <desc>Created with Sketch.</desc>
    <defs></defs>
    <g id="Page-1" stroke="none" stroke-width="1" fill="none" fill-rule="evenodd" fill-opacity="0.2">
        <g id="product-hunt-logo-horizontal-black" fill="#000000">
            <path d="M240,120 C240,186.274 186.274,240 120,240 C53.726,240 0,186.274 0,120 C0,53.726 53.726,0 120,0 C186.274,0 240,53.726 240,120 Z M136,119.9996 L136,120.0006 L102,120.0006 L102,84.0006 L136,84.0006 L136,83.9996 C145.941,83.9996 154,92.0586 154,101.9996 C154,111.9406 145.941,119.9996 136,119.9996 Z M136,59.9996 L136,60.0006 L78,59.9996 L78,179.9996 L102,179.9996 L102,144.0006 L136,144.0006 L136,143.9996 C159.196,143.9996 178,125.1956 178,101.9996 C178,78.8036 159.196,59.9996 136,59.9996 Z" id="Combined-Shape"></path>
            <path d="M366.0679,105.3316 C366.0679,98.7316 360.9929,94.7256 354.4019,94.7256 L336.7309,94.7256 L336.7309,115.8176 L354.4019,115.8176 C360.9929,115.8176 366.0679,111.8116 366.0679,105.3316 L366.0679,105.3316 Z M319.9999,159.9996 L319.9999,79.9996 L356.7529,79.9996 C373.8389,79.9996 383.1439,91.5456 383.1439,105.3316 C383.1439,118.9976 373.7239,130.5436 356.7529,130.5436 L336.7309,130.5436 L336.7309,159.9996 L319.9999,159.9996 Z" id="Fill-5"></path>
            <path d="M393.3229,160 L393.3229,101.676 L408.2789,101.676 L408.2789,109.337 C412.4039,104.387 419.3599,100.266 426.4299,100.266 L426.4299,114.872 C425.3649,114.637 424.0699,114.522 422.3049,114.522 C417.3549,114.522 410.7539,117.347 408.2789,121.003 L408.2789,160 L393.3229,160 Z" id="Fill-7"></path>
            <path d="M476.7574,130.0732 C476.7574,121.2372 471.5674,113.5772 462.1464,113.5772 C452.8314,113.5772 447.6504,121.2372 447.6504,130.0732 C447.6504,139.0292 452.8314,146.6842 462.1464,146.6842 C471.5674,146.6842 476.7574,139.0292 476.7574,130.0732 M432.0994,130.0732 C432.0994,113.9322 443.4104,100.2662 462.1464,100.2662 C480.9974,100.2662 492.3084,113.9322 492.3084,130.0732 C492.3084,146.2142 480.9974,160.0002 462.1464,160.0002 C443.4104,160.0002 432.0994,146.2142 432.0994,130.0732" id="Fill-9"></path>
            <path d="M542.655,140.2039 L542.655,120.0579 C540.18,116.2869 534.76,113.5769 529.809,113.5769 C521.214,113.5769 515.323,120.2929 515.323,130.0729 C515.323,139.9689 521.214,146.6839 529.809,146.6839 C534.76,146.6839 540.18,143.9739 542.655,140.2039 L542.655,140.2039 Z M542.655,159.9999 L542.655,151.2799 C538.175,156.9349 532.054,159.9999 525.099,159.9999 C510.843,159.9999 499.887,149.1599 499.887,130.0729 C499.887,111.5769 510.613,100.2659 525.099,100.2659 C531.814,100.2659 538.175,103.0919 542.655,108.9819 L542.655,79.9999 L557.736,79.9999 L557.736,159.9999 L542.655,159.9999 Z" id="Fill-11"></path>
            <path d="M611.0277,160 L611.0277,151.399 C607.1427,155.64 600.3117,160 591.0057,160 C578.5157,160 572.6247,153.165 572.6247,142.089 L572.6247,101.676 L587.5817,101.676 L587.5817,136.199 C587.5817,144.094 591.7067,146.684 598.0667,146.684 C603.8417,146.684 608.4377,143.504 611.0277,140.204 L611.0277,101.676 L625.9937,101.676 L625.9937,160 L611.0277,160 Z" id="Fill-13"></path>
            <path d="M637.2275,130.0732 C637.2275,112.6372 649.9485,100.2662 667.3895,100.2662 C679.0555,100.2662 686.1255,105.3312 689.8955,110.5172 L680.1105,119.7022 C677.4045,115.6972 673.2795,113.5772 668.0995,113.5772 C659.0235,113.5772 652.6635,120.1772 652.6635,130.0732 C652.6635,139.9692 659.0235,146.6842 668.0995,146.6842 C673.2795,146.6842 677.4045,144.3292 680.1105,140.4392 L689.8955,149.6292 C686.1255,154.8152 679.0555,160.0002 667.3895,160.0002 C649.9485,160.0002 637.2275,147.6292 637.2275,130.0732" id="Fill-15"></path>
            <path d="M702.7605,144.3291 L702.7605,114.7571 L693.3395,114.7571 L693.3395,101.6761 L702.7605,101.6761 L702.7605,86.1251 L717.7265,86.1251 L717.7265,101.6761 L729.2675,101.6761 L729.2675,114.7571 L717.7265,114.7571 L717.7265,140.3241 C717.7265,143.9741 719.6065,146.6841 722.9065,146.6841 C725.1425,146.6841 727.2715,145.8591 728.0875,144.9191 L731.2725,156.3451 C729.0375,158.3501 725.0265,160.0001 718.7815,160.0001 C708.2955,160.0001 702.7605,154.5801 702.7605,144.3291" id="Fill-17"></path>
            <polygon id="Fill-19" points="825.111 160 825.111 125.478 787.994 125.478 787.994 160 771.272 160 771.272 80 787.994 80 787.994 110.867 825.111 110.867 825.111 80 841.957 80 841.957 160"></polygon>
            <path d="M895.4983,160 L895.4983,151.399 C891.6133,155.64 884.7823,160 875.4763,160 C862.9863,160 857.0953,153.165 857.0953,142.089 L857.0953,101.676 L872.0513,101.676 L872.0513,136.199 C872.0513,144.094 876.1773,146.684 882.5373,146.684 C888.3123,146.684 892.9083,143.504 895.4983,140.204 L895.4983,101.676 L910.4643,101.676 L910.4643,160 L895.4983,160 Z" id="Fill-21"></path>
            <path d="M963.7462,160 L963.7462,124.183 C963.7462,116.287 959.6302,113.577 953.2602,113.577 C947.3702,113.577 942.8992,116.877 940.3002,120.177 L940.3002,160 L925.3432,160 L925.3432,101.676 L940.3002,101.676 L940.3002,108.982 C943.9552,104.742 951.0252,100.266 960.2162,100.266 C972.8212,100.266 978.8272,107.332 978.8272,118.407 L978.8272,160 L963.7462,160 Z" id="Fill-23"></path>
            <path d="M996.6615,144.3291 L996.6615,114.7571 L987.2405,114.7571 L987.2405,101.6761 L996.6615,101.6761 L996.6615,86.1251 L1011.6275,86.1251 L1011.6275,101.6761 L1023.1685,101.6761 L1023.1685,114.7571 L1011.6275,114.7571 L1011.6275,140.3241 C1011.6275,143.9741 1013.5075,146.6841 1016.8075,146.6841 C1019.0435,146.6841 1021.1725,145.8591 1021.9975,144.9191 L1025.1735,156.3451 C1022.9375,158.3501 1018.9275,160.0001 1012.6825,160.0001 C1002.1965,160.0001 996.6615,154.5801 996.6615,144.3291" id="Fill-25"></path>
        </g>
    </g>
</svg>