<?xml version="1.0" encoding="UTF-8"?>
<svg width="820px" height="200px" viewBox="0 0 820 200" version="1.1" xmlns="http://www.w3.org/2000/svg" xmlns:xlink="http://www.w3.org/1999/xlink">
    <!-- Generator: Sketch 43.2 (39069) - http://www.bohemiancoding.com/sketch -->
    <title>recode</title>
    <desc>Created with Sketch.</desc>
    <defs></defs>
    <g id="Page-1" stroke="none" stroke-width="1" fill="none" fill-rule="evenodd" fill-opacity="0.2">
        <g id="recode" fill-rule="nonzero" fill="#000000">
            <path d="M80.8,86 L80.8,45 C62.8,45 50.1,52.6 42.8,67.8 L42.8,47.8 L0.6,47.8 L0.6,195.9 L45.6,195.9 L45.6,123.5 C45.6,95.6 51.5,86.1 79.7,86.1 L80.8,86.1 L80.8,86 Z" id="Shape"></path>
            <path d="M819.4,133 C819.4,78.5 787.5,45 740.9,45 C721,45 701.7,53.2 686.9,67.9 C679,75.8 673.1,85 669.3,95.1 L669.3,0.2 L624.8,0.2 L624.8,64.1 C614.8,51.1 600.7,45 582.4,45 C563.3,45 546.1,52 532,65.8 C521.8,75.6 514.7,87.1 511,99.9 C507.2,87.4 500.2,75.7 490.2,66.2 C475.5,52.3 457.2,44.9 435.9,44.9 C416,44.9 396.6,53.1 381.9,67.8 C374,75.7 368,85 364.2,95.2 C351.4,62.6 325.6,45 291.2,45 C275.7,45 261.9,49.2 249.7,57.5 L228.5,108.8 C220.4,68.8 191.6,45 152.4,45 C132.5,45 113.2,53.2 98.4,67.9 C83.9,82.3 76,101.1 76,121.5 C76,142.2 83.4,160.7 97.5,175.7 C112.5,191.5 130.5,199.1 152.8,199.1 C169.5,199.1 184,195 196.1,187 L210.1,153 L176.5,153 C170,158.7 162.9,161.2 154.2,161.2 C135.4,161.2 124.2,153 120.4,137.5 L216.6,137.5 C219.5,151.7 226.1,164.8 236.5,175.7 C251.5,191.5 269.4,199.1 291.7,199.1 C325.2,199.1 352.1,180.6 364.3,149.3 C367.9,159 373.5,167.8 380.9,175.6 C395.9,191.4 413.9,199.1 436.3,199.1 C458.4,199.1 477,191.2 492,176.2 C501.1,167.1 507.4,156.7 510.8,144.8 C514.8,158.8 522.6,171.1 534.1,181.4 C547.3,193.2 563.1,199.1 581.4,199.1 C599.4,199.1 612.9,194.3 626.1,181.4 L626.1,195.8 L669.2,195.8 L669.2,148.8 C672.8,158.6 678.4,167.7 686,175.7 C701,191.5 719,199.1 741.3,199.1 C774,199.1 798.3,183.6 812.4,153 L765,153 C758.5,158.7 751.4,161.2 742.7,161.2 C723.9,161.2 712.7,153 708.9,137.5 L819.3,137.5 L819.3,133 L819.4,133 Z M119.1,107.1 C122.1,93.2 134.9,83.9 152.9,83.9 C170.1,83.9 182.3,92.1 187.5,107.1 L119.1,107.1 Z M320.6,143.1 C313.5,152.6 304,157.5 292.3,157.5 C271.6,157.5 257.5,143.6 257.5,121.3 C257.5,101.2 271.6,86.5 291,86.5 C305.1,86.5 315.2,91.9 321.2,102 L362,102 C360.3,108.3 359.5,114.8 359.5,121.6 C359.5,129 360.5,136.2 362.4,143.1 L320.6,143.1 Z M436.7,159.2 C417.4,159.2 401.1,142.7 401.1,122.2 C401.1,101.5 417.1,84.9 436.7,84.9 C456.3,84.9 472.3,101.4 472.3,122.2 C472.3,142.7 456.3,159.2 436.7,159.2 L436.7,159.2 Z M591.4,159.2 C568.7,159.2 552.4,143.2 552.4,122.2 C552.4,102 568.7,84.9 589.7,84.9 C610.4,84.9 626.4,101.2 626.4,122.7 C626.5,143.5 610.5,159.2 591.4,159.2 L591.4,159.2 Z M707.7,107.1 C710.7,93.2 723.5,83.9 741.5,83.9 C758.7,83.9 770.9,92.1 776.1,107.1 L707.7,107.1 Z" id="Shape"></path>
        </g>
    </g>
</svg>